<svg fill="#FFFFFF" xmlns="http://www.w3.org/2000/svg"  viewBox="0 0 50 50" width="50px" height="50px"><path d="M 25 0 C 13.429623 0 4 9.429623 4 21 C 4 32.570377 13.429623 42 25 42 L 25 49 A 1.0001 1.0001 0 0 0 26.4375 49.898438 C 28.841034 48.726608 33.639439 45.650689 37.935547 40.783203 C 42.231655 35.915717 46 29.229065 46 21 C 46 9.429623 36.570377 0 25 0 z M 25 2 C 35.485623 2 44 10.514377 44 21 C 44 28.618935 40.515439 34.836471 36.435547 39.458984 C 32.980698 43.373325 29.384771 45.821119 27 47.191406 L 27 41 A 1.0001 1.0001 0 0 0 26 40 L 25 40 C 14.514377 40 6 31.485623 6 21 C 6 10.514377 14.514377 2 25 2 z M 25 9 C 18.444444 9 13 14.444444 13 21 C 13 27.555556 18.444444 33 25 33 C 28.222222 33 30.447266 31.894531 30.447266 31.894531 L 29.552734 30.105469 C 29.552734 30.105469 27.777778 31 25 31 C 19.555556 31 15 26.444444 15 21 C 15 15.555556 19.555556 11 25 11 C 30.444444 11 35 15.555556 35 21 C 35 22.333333 34.658692 23.380566 34.185547 24.042969 C 33.712402 24.705372 33.166667 25 32.5 25 C 31.972222 25 31.828156 24.971594 31.550781 24.496094 C 31.273406 24.020593 31 22.916667 31 21 L 31 15 L 29 15 L 29 16.544922 C 27.936235 15.588419 26.535616 15 25 15 C 23.083334 15 21.518559 15.754756 20.501953 16.898438 C 19.485347 18.042119 19 19.527778 19 21 C 19 22.472222 19.485347 23.957881 20.501953 25.101562 C 21.518559 26.245244 23.083334 27 25 27 C 26.816713 27 28.448454 26.181239 29.550781 24.896484 C 29.635117 25.106673 29.71671 25.319605 29.824219 25.503906 C 30.421844 26.528406 31.527778 27 32.5 27 C 33.833333 27 35.037598 26.294628 35.814453 25.207031 C 36.591308 24.119434 37 22.666667 37 21 C 37 14.444444 31.555556 9 25 9 z M 25 17 C 27.220986 17 29 18.779015 29 21 C 29 23.220985 27.220986 25 25 25 C 23.583334 25 22.648107 24.504756 21.998047 23.773438 C 21.347987 23.042119 21 22.027778 21 21 C 21 19.972222 21.347987 18.957881 21.998047 18.226562 C 22.648107 17.495244 23.583334 17 25 17 z"/></svg>